<svg width="16" height="16" viewBox="0 0 16 16" fill="none" xmlns="http://www.w3.org/2000/svg">
<path d="M15.3143 10.8237C15.4961 10.8237 15.6706 10.8981 15.7992 11.0305C15.9278 11.1629 16 11.3424 16 11.5296V12.4708C16 13.4068 15.6388 14.3046 14.9958 14.9665C14.3528 15.6284 13.4807 16.0002 12.5714 16.0002H3.42857C2.51926 16.0002 1.64719 15.6284 1.00421 14.9665C0.361223 14.3046 0 13.4068 0 12.4708V11.5334C0 11.3462 0.0722446 11.1666 0.200841 11.0342C0.329437 10.9019 0.503852 10.8275 0.685714 10.8275C0.867577 10.8275 1.04199 10.9019 1.17059 11.0342C1.29918 11.1666 1.37143 11.3462 1.37143 11.5334V12.4708C1.37143 13.0324 1.58816 13.5711 1.97395 13.9682C2.35974 14.3653 2.88298 14.5884 3.42857 14.5884H12.5714C13.117 14.5884 13.6403 14.3653 14.026 13.9682C14.4118 13.5711 14.6286 13.0324 14.6286 12.4708V11.5296C14.6286 11.3424 14.7008 11.1629 14.8294 11.0305C14.958 10.8981 15.1324 10.8237 15.3143 10.8237Z" fill="black"/>
<path d="M8.68606 0.705882C8.68606 0.518671 8.61381 0.339127 8.48522 0.206748C8.35662 0.0743694 8.18221 0 8.00035 0C7.81848 0 7.64407 0.0743694 7.51547 0.206748C7.38688 0.339127 7.31463 0.518671 7.31463 0.705882V7.26588H4.31577C4.18736 7.39824 4.11523 7.57765 4.11523 7.76471C4.11523 7.95177 4.18736 8.13118 4.31577 8.26353L7.51577 11.5576C7.64435 11.6898 7.81863 11.7641 8.00035 11.7641C8.18206 11.7641 8.35634 11.6898 8.48492 11.5576L11.6849 8.26353C11.8133 8.13118 11.8855 7.95177 11.8855 7.76471C11.8855 7.57765 11.8133 7.39824 11.6849 7.26588H8.68606V0.705882Z" fill="black"/>
</svg>
