<svg width="16" height="16" viewBox="0 0 16 16" fill="none" xmlns="http://www.w3.org/2000/svg">
<path d="M10.7744 1.96048C11.8415 0.888846 13.4028 0.86652 14.2668 1.73424C15.1331 2.60346 15.11 4.17518 14.0414 5.24682L12.2382 7.05743C12.1367 7.16284 12.0806 7.30391 12.0821 7.45025C12.0835 7.5966 12.1424 7.73651 12.2461 7.83985C12.3497 7.94319 12.4898 8.0017 12.6361 8.00276C12.7825 8.00382 12.9234 7.94735 13.0285 7.84552L14.8324 6.03491C16.2546 4.60681 16.4332 2.32736 15.0579 0.946148C13.6812 -0.435811 11.4062 -0.255717 9.98255 1.17238L6.37621 4.79435C4.95407 6.22245 4.77546 8.5019 6.15072 9.88237C6.20209 9.93578 6.26358 9.97844 6.3316 10.0078C6.39962 10.0372 6.47282 10.0528 6.54692 10.0536C6.62102 10.0544 6.69454 10.0405 6.76319 10.0126C6.83184 9.98467 6.89425 9.94338 6.94677 9.8911C6.9993 9.83882 7.04089 9.77661 7.06911 9.70809C7.09734 9.63957 7.11163 9.56612 7.11117 9.49201C7.11071 9.41791 7.09549 9.34464 7.06641 9.27648C7.03733 9.20832 6.99497 9.14663 6.9418 9.09502C6.07556 8.2258 6.09938 6.65408 7.16729 5.58245L10.7744 1.96048Z" fill="black"/>
<path d="M9.84968 6.1168C9.74507 6.0119 9.60308 5.95285 9.45493 5.95264C9.30679 5.95243 9.16463 6.01108 9.05972 6.11568C8.95482 6.22029 8.89577 6.36229 8.89556 6.51043C8.89535 6.65858 8.954 6.80074 9.05861 6.90564C9.92484 7.77485 9.90178 9.34584 8.83312 10.4182L5.22604 14.0394C4.15813 15.1111 2.59682 15.1334 1.73281 14.2657C0.866577 13.3965 0.890392 11.8247 1.9583 10.7531L3.76222 8.94249C3.81396 8.89054 3.85497 8.82892 3.8829 8.76113C3.91083 8.69333 3.92514 8.62071 3.925 8.54739C3.92486 8.47407 3.91028 8.40149 3.8821 8.33381C3.85391 8.26612 3.81267 8.20465 3.76073 8.1529C3.70879 8.10116 3.64716 8.06015 3.57937 8.03221C3.51158 8.00428 3.43895 7.98998 3.36563 7.99012C3.29231 7.99026 3.21973 8.00483 3.15205 8.03302C3.08436 8.06121 3.02289 8.10245 2.97114 8.15439L1.16723 9.965C-0.254915 11.3938 -0.433521 13.6726 0.941741 15.0538C2.31849 16.4365 4.59348 16.2556 6.01711 14.8275L9.62419 11.2056C11.0463 9.77821 11.2249 7.49727 9.84968 6.1168Z" fill="black"/>
</svg>
