<svg width="16" height="16" viewBox="0 0 16 16" fill="none" xmlns="http://www.w3.org/2000/svg">
<path d="M9.5 1.60016C9.5 1.37614 9.5 1.26573 9.488 1.17292C9.44982 0.879621 9.32296 0.607629 9.12668 0.398247C8.9304 0.188865 8.67544 0.0535321 8.4005 0.0128011C8.315 -1.65403e-07 8.21 0 8 0C7.79 0 7.6865 -1.65403e-07 7.5995 0.0128011C7.32456 0.0535321 7.0696 0.188865 6.87332 0.398247C6.67704 0.607629 6.55018 0.879621 6.512 1.17292C6.5 1.26413 6.5 1.37614 6.5 1.60016C6.5 1.82418 6.5 1.93459 6.512 2.0274C6.55018 2.3207 6.67704 2.59269 6.87332 2.80207C7.0696 3.01146 7.32456 3.14679 7.5995 3.18752C7.685 3.20032 7.79 3.20032 8 3.20032C8.21 3.20032 8.3135 3.20032 8.4005 3.18752C8.67544 3.14679 8.9304 3.01146 9.12668 2.80207C9.32296 2.59269 9.44982 2.3207 9.488 2.0274C9.5 1.93619 9.5 1.82418 9.5 1.60016ZM9.5 8.0008C9.5 7.77678 9.5 7.66637 9.488 7.57356C9.44982 7.28026 9.32296 7.00827 9.12668 6.79889C8.9304 6.58951 8.67544 6.45417 8.4005 6.41344C8.315 6.40064 8.21 6.40064 8 6.40064C7.79 6.40064 7.6865 6.40064 7.5995 6.41344C7.32456 6.45417 7.0696 6.58951 6.87332 6.79889C6.67704 7.00827 6.55018 7.28026 6.512 7.57356C6.5 7.66477 6.5 7.77678 6.5 8.0008C6.5 8.22482 6.5 8.33523 6.512 8.42804C6.55018 8.72134 6.67704 8.99333 6.87332 9.20271C7.0696 9.4121 7.32456 9.54743 7.5995 9.58816C7.685 9.60096 7.79 9.60096 8 9.60096C8.21 9.60096 8.3135 9.60096 8.4005 9.58816C8.67544 9.54743 8.9304 9.4121 9.12668 9.20271C9.32296 8.99333 9.44982 8.72134 9.488 8.42804C9.5 8.33683 9.5 8.22482 9.5 8.0008ZM9.5 14.4014C9.5 14.179 9.5 14.067 9.488 13.9742C9.4496 13.6814 9.32282 13.41 9.12686 13.2009C8.93091 12.9919 8.67645 12.8567 8.402 12.8157C8.3135 12.8029 8.21 12.8029 8.0015 12.8029C7.793 12.8029 7.6865 12.8029 7.601 12.8157C7.32655 12.8567 7.07209 12.9919 6.87614 13.2009C6.68018 13.41 6.55341 13.6814 6.515 13.9742C6.503 14.067 6.503 14.179 6.503 14.4014C6.503 14.6239 6.503 14.7359 6.515 14.8287C6.55341 15.1215 6.68018 15.3929 6.87614 15.602C7.07209 15.811 7.32655 15.9462 7.601 15.9872C7.688 16 7.793 16 8.0015 16C8.21 16 8.315 16 8.402 15.9872C8.67645 15.9462 8.93091 15.811 9.12686 15.602C9.32282 15.3929 9.4496 15.1215 9.488 14.8287C9.5 14.7359 9.5 14.6239 9.5 14.4014Z" fill="black"/>
</svg>
