<svg width="16" height="16" viewBox="0 0 16 16" fill="none" xmlns="http://www.w3.org/2000/svg">
<path fill-rule="evenodd" clip-rule="evenodd" d="M2 5.86653C2 4.31063 2.63214 2.81846 3.75736 1.71827C4.88258 0.618079 6.4087 0 8 0C9.5913 0 11.1174 0.618079 12.2426 1.71827C13.3679 2.81846 14 4.31063 14 5.86653C14 8.70487 12.5535 11.22 11.1593 12.9917C10.3918 13.9628 9.53235 14.861 8.59236 15.6743L8.36109 15.8663L8.34691 15.878L8.34255 15.8812H8.34145L8 15.4663L7.68691 15.9036L7.68473 15.9015L7.68036 15.8983L7.66618 15.8887L7.61491 15.8524L7.43055 15.7148C7.21077 15.5465 6.99614 15.3718 6.78691 15.1911C6.08311 14.583 5.43417 13.9167 4.84727 13.1997C3.44 11.4803 2 8.96513 2 5.86653ZM8 15.4663L7.68691 15.9036C7.78367 15.9698 7.89979 16.0036 8.01782 15.9997C8.13585 15.9959 8.24942 15.9536 8.34145 15.8812L8 15.4663ZM7.98036 14.7805C8.82557 14.0372 9.60035 13.2207 10.2953 12.341C11.6284 10.6462 12.9091 8.36247 12.9091 5.86653C12.9091 4.59352 12.3919 3.37265 11.4713 2.4725C10.5506 1.57234 9.30197 1.06664 8 1.06664C6.69803 1.06664 5.44938 1.57234 4.52875 2.4725C3.60812 3.37265 3.09091 4.59352 3.09091 5.86653C3.09091 8.63447 4.37818 10.9192 5.69818 12.533C6.37528 13.3592 7.14031 14.1125 7.98036 14.7805ZM8 4.26657C7.56601 4.26657 7.14979 4.43513 6.84292 4.73519C6.53604 5.03524 6.36364 5.44219 6.36364 5.86653C6.36364 6.29087 6.53604 6.69782 6.84292 6.99788C7.14979 7.29793 7.56601 7.46649 8 7.46649C8.43399 7.46649 8.85021 7.29793 9.15708 6.99788C9.46396 6.69782 9.63636 6.29087 9.63636 5.86653C9.63636 5.44219 9.46396 5.03524 9.15708 4.73519C8.85021 4.43513 8.43399 4.26657 8 4.26657ZM5.27273 5.86653C5.27273 5.1593 5.56006 4.48104 6.07153 3.98096C6.58299 3.48087 7.27668 3.19993 8 3.19993C8.72332 3.19993 9.41701 3.48087 9.92847 3.98096C10.4399 4.48104 10.7273 5.1593 10.7273 5.86653C10.7273 6.57376 10.4399 7.25202 9.92847 7.75211C9.41701 8.25219 8.72332 8.53314 8 8.53314C7.27668 8.53314 6.58299 8.25219 6.07153 7.75211C5.56006 7.25202 5.27273 6.57376 5.27273 5.86653Z" fill="black"/>
</svg>
