<svg width="16" height="16" viewBox="0 0 16 16" fill="none" xmlns="http://www.w3.org/2000/svg">
<path d="M15.3143 10.8237C15.4961 10.8237 15.6706 10.8981 15.7992 11.0305C15.9278 11.1629 16 11.3424 16 11.5296V12.4708C16 13.4068 15.6388 14.3046 14.9958 14.9665C14.3528 15.6284 13.4807 16.0002 12.5714 16.0002H3.42857C2.51926 16.0002 1.64719 15.6284 1.00421 14.9665C0.361223 14.3046 0 13.4068 0 12.4708V11.5334C0 11.3462 0.0722446 11.1666 0.200841 11.0342C0.329437 10.9019 0.503852 10.8275 0.685714 10.8275C0.867577 10.8275 1.04199 10.9019 1.17059 11.0342C1.29918 11.1666 1.37143 11.3462 1.37143 11.5334V12.4708C1.37143 13.0324 1.58816 13.5711 1.97395 13.9682C2.35974 14.3653 2.88298 14.5884 3.42857 14.5884H12.5714C13.117 14.5884 13.6403 14.3653 14.026 13.9682C14.4118 13.5711 14.6286 13.0324 14.6286 12.4708V11.5296C14.6286 11.3424 14.7008 11.1629 14.8294 11.0305C14.958 10.8981 15.1324 10.8237 15.3143 10.8237Z" fill="black"/>
<path d="M7.31394 11.2941C7.31394 11.4813 7.38619 11.6609 7.51478 11.7933C7.64338 11.9256 7.81779 12 7.99965 12C8.18152 12 8.35593 11.9256 8.48453 11.7933C8.61312 11.6609 8.68537 11.4813 8.68537 11.2941V4.73412H11.6842C11.8126 4.60176 11.8848 4.42235 11.8848 4.23529C11.8848 4.04823 11.8126 3.86882 11.6842 3.73647L8.48423 0.442352C8.35565 0.310163 8.18137 0.235915 7.99965 0.235915C7.81794 0.235915 7.64366 0.310163 7.51508 0.442352L4.31508 3.73647C4.18667 3.86882 4.11454 4.04823 4.11454 4.23529C4.11454 4.42235 4.18667 4.60176 4.31508 4.73412H7.31394V11.2941Z" fill="black"/>
</svg>
